# xmcd
#
# Track frame offsets:
#	150
#	20132
#	36542
#	58228
#	76396
#	95574
#	108947
#	124462
#	146275
#	163569
#	179901
#	196640
#
# Disc length: 2830 seconds
#
# Revision: 1
# Processed by: cddbd v1.4PL0 Copyright (c) Steve Scherf et al.
# Submitted via: audiograbber 1.80
#
DISCID=ad0b0c0c
DTITLE=You're Still The One - Country Hits Dance Party
DYEAR=1900
DGENRE=
TTITLE0=E Magine - You're Still The One
TTITLE1=Superstarz - This Kiss
TTITLE2=Linda Imperial - How Do I Live
TTITLE3=3 a.m. - To Make You Feel My Love
TTITLE4=Lisa S. - Love Gets Me Every Time
TTITLE5=Bang o rama - If You See Him  If You See Her
TTITLE6='N Fashion - Perfect Love
TTITLE7=Quickdraw - It's Your Love
TTITLE8=Lisa S. - Don't Be Stupid
TTITLE9=Linda Imperial - Bye Bye
TTITLE10=Bang o rama - I Just Want To Dance With You
TTITLE11=Heartland - My Maria
EXTD=
EXTT0=
EXTT1=
EXTT2=
EXTT3=
EXTT4=
EXTT5=
EXTT6=
EXTT7=
EXTT8=
EXTT9=
EXTT10=
EXTT11=
PLAYORDER=
